{
    "asset": {
        "version": "2.0",
        "generator": "Open Asset Import Library (assimp v5.4.0)"
    },
    "extensionsUsed": [
        "KHR_materials_volume",
        "FB_ngon_encoding"
    ],
    "accessors": [
        {
            "bufferView": 0,
            "byteOffset": 0,
            "componentType": 5126,
            "count": 37449,
            "type": "VEC3",
            "max": [
                0.10504502803087234,
                0.349103718996048,
                0.3496471345424652
            ],
            "min": [
                -0.1943908929824829,
                -0.35020357370376587,
                -0.34970322251319885
            ]
        },
        {
            "bufferView": 1,
            "byteOffset": 0,
            "componentType": 5126,
            "count": 37449,
            "type": "VEC3",
            "max": [
                0.9999991655349731,
                0.999967098236084,
                0.9999922513961792
            ],
            "min": [
                -0.9990052580833435,
                -0.9999887943267822,
                -0.9999946355819702
            ]
        },
        {
            "bufferView": 2,
            "byteOffset": 0,
            "componentType": 5126,
            "count": 37449,
            "type": "VEC2",
            "max": [
                0.8880482316017151,
                0.9957332611083984
            ],
            "min": [
                0.1113600879907608,
                0.004447579383850098
            ]
        },
        {
            "bufferView": 3,
            "byteOffset": 0,
            "componentType": 5125,
            "count": 141432,
            "type": "SCALAR",
            "max": [
                37448
            ],
            "min": [
                0
            ]
        },
        {
            "bufferView": 4,
            "byteOffset": 0,
            "componentType": 5126,
            "count": 10987,
            "type": "VEC3",
            "max": [
                0.07029909640550613,
                0.27265363931655884,
                0.2731631100177765
            ],
            "min": [
                -0.15971757471561432,
                -0.27372846007347107,
                -0.273223876953125
            ]
        },
        {
            "bufferView": 5,
            "byteOffset": 0,
            "componentType": 5126,
            "count": 10987,
            "type": "VEC3",
            "max": [
                1.0,
                1.0,
                0.9999780654907227
            ],
            "min": [
                -1.0,
                -1.0,
                -0.9999593496322632
            ]
        },
        {
            "bufferView": 6,
            "byteOffset": 0,
            "componentType": 5126,
            "count": 10987,
            "type": "VEC2",
            "max": [
                0.9976010322570801,
                0.9979984760284424
            ],
            "min": [
                0.0019436036236584187,
                0.0019822120666503906
            ]
        },
        {
            "bufferView": 7,
            "byteOffset": 0,
            "componentType": 5125,
            "count": 58542,
            "type": "SCALAR",
            "max": [
                10986
            ],
            "min": [
                0
            ]
        },
        {
            "bufferView": 8,
            "byteOffset": 0,
            "componentType": 5126,
            "count": 2417,
            "type": "VEC3",
            "max": [
                0.005822351202368736,
                0.010763145051896572,
                0.010763137601315975
            ],
            "min": [
                -0.019830279052257538,
                -0.010763135738670826,
                -0.01076314877718687
            ]
        },
        {
            "bufferView": 9,
            "byteOffset": 0,
            "componentType": 5126,
            "count": 2417,
            "type": "VEC3",
            "max": [
                0.9909946918487549,
                0.9996801018714905,
                0.9996801018714905
            ],
            "min": [
                -1.0,
                -0.9996801018714905,
                -0.9996801018714905
            ]
        },
        {
            "bufferView": 10,
            "byteOffset": 0,
            "componentType": 5126,
            "count": 2417,
            "type": "VEC2",
            "max": [
                0.795506477355957,
                0.8336178660392761
            ],
            "min": [
                0.5256065130233765,
                0.1103549599647522
            ]
        },
        {
            "bufferView": 11,
            "byteOffset": 0,
            "componentType": 5125,
            "count": 8316,
            "type": "SCALAR",
            "max": [
                2416
            ],
            "min": [
                0
            ]
        },
        {
            "bufferView": 12,
            "byteOffset": 0,
            "componentType": 5126,
            "count": 2417,
            "type": "VEC3",
            "max": [
                0.005822351202368736,
                0.010763145051896572,
                0.010763137601315975
            ],
            "min": [
                -0.019830279052257538,
                -0.010763135738670826,
                -0.01076314877718687
            ]
        },
        {
            "bufferView": 13,
            "byteOffset": 0,
            "componentType": 5126,
            "count": 2417,
            "type": "VEC3",
            "max": [
                0.9909946918487549,
                0.9996801018714905,
                0.9996801018714905
            ],
            "min": [
                -1.0,
                -0.9996801018714905,
                -0.9996801018714905
            ]
        },
        {
            "bufferView": 14,
            "byteOffset": 0,
            "componentType": 5126,
            "count": 2417,
            "type": "VEC2",
            "max": [
                0.5304431319236755,
                0.7981147170066833
            ],
            "min": [
                0.19875949621200562,
                0.004076838493347168
            ]
        },
        {
            "bufferView": 15,
            "byteOffset": 0,
            "componentType": 5125,
            "count": 8316,
            "type": "SCALAR",
            "max": [
                2416
            ],
            "min": [
                0
            ]
        },
        {
            "bufferView": 16,
            "byteOffset": 0,
            "componentType": 5126,
            "count": 2417,
            "type": "VEC3",
            "max": [
                0.005822351202368736,
                0.010763145051896572,
                0.010763137601315975
            ],
            "min": [
                -0.019830279052257538,
                -0.010763135738670826,
                -0.01076314877718687
            ]
        },
        {
            "bufferView": 17,
            "byteOffset": 0,
            "componentType": 5126,
            "count": 2417,
            "type": "VEC3",
            "max": [
                0.9909946918487549,
                0.9996801018714905,
                0.9996801018714905
            ],
            "min": [
                -1.0,
                -0.9996801018714905,
                -0.9996801018714905
            ]
        },
        {
            "bufferView": 18,
            "byteOffset": 0,
            "componentType": 5126,
            "count": 2417,
            "type": "VEC2",
            "max": [
                0.798672616481781,
                0.8544772267341614
            ],
            "min": [
                0.20154380798339844,
                0.005320429801940918
            ]
        },
        {
            "bufferView": 19,
            "byteOffset": 0,
            "componentType": 5125,
            "count": 8316,
            "type": "SCALAR",
            "max": [
                2416
            ],
            "min": [
                0
            ]
        },
        {
            "bufferView": 20,
            "byteOffset": 0,
            "componentType": 5126,
            "count": 2417,
            "type": "VEC3",
            "max": [
                0.005822351202368736,
                0.010763145051896572,
                0.010763137601315975
            ],
            "min": [
                -0.019830279052257538,
                -0.010763135738670826,
                -0.01076314877718687
            ]
        },
        {
            "bufferView": 21,
            "byteOffset": 0,
            "componentType": 5126,
            "count": 2417,
            "type": "VEC3",
            "max": [
                0.9909946918487549,
                0.9996801018714905,
                0.9996801018714905
            ],
            "min": [
                -1.0,
                -0.9996801018714905,
                -0.9996801018714905
            ]
        },
        {
            "bufferView": 22,
            "byteOffset": 0,
            "componentType": 5126,
            "count": 2417,
            "type": "VEC2",
            "max": [
                0.7955606579780579,
                0.9951640367507935
            ],
            "min": [
                0.20336323976516724,
                0.13753461837768555
            ]
        },
        {
            "bufferView": 23,
            "byteOffset": 0,
            "componentType": 5125,
            "count": 8316,
            "type": "SCALAR",
            "max": [
                2416
            ],
            "min": [
                0
            ]
        },
        {
            "bufferView": 24,
            "byteOffset": 0,
            "componentType": 5126,
            "count": 2417,
            "type": "VEC3",
            "max": [
                0.005822351202368736,
                0.010763145051896572,
                0.010763137601315975
            ],
            "min": [
                -0.019830279052257538,
                -0.010763135738670826,
                -0.01076314877718687
            ]
        },
        {
            "bufferView": 25,
            "byteOffset": 0,
            "componentType": 5126,
            "count": 2417,
            "type": "VEC3",
            "max": [
                0.9909946918487549,
                0.9996801018714905,
                0.9996801018714905
            ],
            "min": [
                -1.0,
                -0.9996801018714905,
                -0.9996801018714905
            ]
        },
        {
            "bufferView": 26,
            "byteOffset": 0,
            "componentType": 5126,
            "count": 2417,
            "type": "VEC2",
            "max": [
                0.7961366176605225,
                0.9961764812469482
            ],
            "min": [
                0.20320457220077515,
                0.16909712553024292
            ]
        },
        {
            "bufferView": 27,
            "byteOffset": 0,
            "componentType": 5125,
            "count": 8316,
            "type": "SCALAR",
            "max": [
                2416
            ],
            "min": [
                0
            ]
        },
        {
            "bufferView": 28,
            "byteOffset": 0,
            "componentType": 5126,
            "count": 1412,
            "type": "VEC3",
            "max": [
                0.011092673055827618,
                0.027653934434056282,
                0.027101268991827965
            ],
            "min": [
                0.00981303583830595,
                -0.026610087603330612,
                -0.027158362790942192
            ]
        },
        {
            "bufferView": 29,
            "byteOffset": 0,
            "componentType": 5126,
            "count": 1412,
            "type": "VEC3",
            "max": [
                1.0,
                0.9998499155044556,
                0.9997456073760986
            ],
            "min": [
                -1.0,
                -0.9995949864387512,
                -0.9998084306716919
            ]
        },
        {
            "bufferView": 30,
            "byteOffset": 0,
            "componentType": 5126,
            "count": 1412,
            "type": "VEC2",
            "max": [
                0.6814132928848267,
                0.8307667970657349
            ],
            "min": [
                0.31610268354415894,
                0.3217427730560303
            ]
        },
        {
            "bufferView": 31,
            "byteOffset": 0,
            "componentType": 5125,
            "count": 7176,
            "type": "SCALAR",
            "max": [
                1411
            ],
            "min": [
                0
            ]
        }
    ],
    "buffers": [
        {
            "byteLength": 2976776,
            "uri": "ImageToStl.bin"
        }
    ],
    "bufferViews": [
        {
            "buffer": 0,
            "byteOffset": 0,
            "byteLength": 449388,
            "target": 34962
        },
        {
            "buffer": 0,
            "byteOffset": 449388,
            "byteLength": 449388,
            "target": 34962
        },
        {
            "buffer": 0,
            "byteOffset": 898776,
            "byteLength": 299592,
            "target": 34962
        },
        {
            "buffer": 0,
            "byteOffset": 1198368,
            "byteLength": 565728,
            "target": 34963
        },
        {
            "buffer": 0,
            "byteOffset": 1764096,
            "byteLength": 131844,
            "target": 34962
        },
        {
            "buffer": 0,
            "byteOffset": 1895940,
            "byteLength": 131844,
            "target": 34962
        },
        {
            "buffer": 0,
            "byteOffset": 2027784,
            "byteLength": 87896,
            "target": 34962
        },
        {
            "buffer": 0,
            "byteOffset": 2115680,
            "byteLength": 234168,
            "target": 34963
        },
        {
            "buffer": 0,
            "byteOffset": 2349848,
            "byteLength": 29004,
            "target": 34962
        },
        {
            "buffer": 0,
            "byteOffset": 2378852,
            "byteLength": 29004,
            "target": 34962
        },
        {
            "buffer": 0,
            "byteOffset": 2407856,
            "byteLength": 19336,
            "target": 34962
        },
        {
            "buffer": 0,
            "byteOffset": 2427192,
            "byteLength": 33264,
            "target": 34963
        },
        {
            "buffer": 0,
            "byteOffset": 2460456,
            "byteLength": 29004,
            "target": 34962
        },
        {
            "buffer": 0,
            "byteOffset": 2489460,
            "byteLength": 29004,
            "target": 34962
        },
        {
            "buffer": 0,
            "byteOffset": 2518464,
            "byteLength": 19336,
            "target": 34962
        },
        {
            "buffer": 0,
            "byteOffset": 2537800,
            "byteLength": 33264,
            "target": 34963
        },
        {
            "buffer": 0,
            "byteOffset": 2571064,
            "byteLength": 29004,
            "target": 34962
        },
        {
            "buffer": 0,
            "byteOffset": 2600068,
            "byteLength": 29004,
            "target": 34962
        },
        {
            "buffer": 0,
            "byteOffset": 2629072,
            "byteLength": 19336,
            "target": 34962
        },
        {
            "buffer": 0,
            "byteOffset": 2648408,
            "byteLength": 33264,
            "target": 34963
        },
        {
            "buffer": 0,
            "byteOffset": 2681672,
            "byteLength": 29004,
            "target": 34962
        },
        {
            "buffer": 0,
            "byteOffset": 2710676,
            "byteLength": 29004,
            "target": 34962
        },
        {
            "buffer": 0,
            "byteOffset": 2739680,
            "byteLength": 19336,
            "target": 34962
        },
        {
            "buffer": 0,
            "byteOffset": 2759016,
            "byteLength": 33264,
            "target": 34963
        },
        {
            "buffer": 0,
            "byteOffset": 2792280,
            "byteLength": 29004,
            "target": 34962
        },
        {
            "buffer": 0,
            "byteOffset": 2821284,
            "byteLength": 29004,
            "target": 34962
        },
        {
            "buffer": 0,
            "byteOffset": 2850288,
            "byteLength": 19336,
            "target": 34962
        },
        {
            "buffer": 0,
            "byteOffset": 2869624,
            "byteLength": 33264,
            "target": 34963
        },
        {
            "buffer": 0,
            "byteOffset": 2902888,
            "byteLength": 16944,
            "target": 34962
        },
        {
            "buffer": 0,
            "byteOffset": 2919832,
            "byteLength": 16944,
            "target": 34962
        },
        {
            "buffer": 0,
            "byteOffset": 2936776,
            "byteLength": 11296,
            "target": 34962
        },
        {
            "buffer": 0,
            "byteOffset": 2948072,
            "byteLength": 28704,
            "target": 34963
        }
    ],
    "materials": [
        {
            "name": "wheel",
            "doubleSided": true
        }
    ],
    "meshes": [
        {
            "name": "meshes[0]",
            "primitives": [
                {
                    "mode": 4,
                    "material": 0,
                    "indices": 3,
                    "attributes": {
                        "POSITION": 0,
                        "NORMAL": 1,
                        "TEXCOORD_0": 2
                    }
                }
            ]
        },
        {
            "name": "meshes[1]",
            "primitives": [
                {
                    "mode": 4,
                    "material": 0,
                    "indices": 7,
                    "attributes": {
                        "POSITION": 4,
                        "NORMAL": 5,
                        "TEXCOORD_0": 6
                    }
                }
            ]
        },
        {
            "name": "meshes[2]",
            "primitives": [
                {
                    "mode": 4,
                    "material": 0,
                    "indices": 11,
                    "attributes": {
                        "POSITION": 8,
                        "NORMAL": 9,
                        "TEXCOORD_0": 10
                    }
                }
            ]
        },
        {
            "name": "meshes[3]",
            "primitives": [
                {
                    "mode": 4,
                    "material": 0,
                    "indices": 15,
                    "attributes": {
                        "POSITION": 12,
                        "NORMAL": 13,
                        "TEXCOORD_0": 14
                    }
                }
            ]
        },
        {
            "name": "meshes[4]",
            "primitives": [
                {
                    "mode": 4,
                    "material": 0,
                    "indices": 19,
                    "attributes": {
                        "POSITION": 16,
                        "NORMAL": 17,
                        "TEXCOORD_0": 18
                    }
                }
            ]
        },
        {
            "name": "meshes[5]",
            "primitives": [
                {
                    "mode": 4,
                    "material": 0,
                    "indices": 23,
                    "attributes": {
                        "POSITION": 20,
                        "NORMAL": 21,
                        "TEXCOORD_0": 22
                    }
                }
            ]
        },
        {
            "name": "meshes[6]",
            "primitives": [
                {
                    "mode": 4,
                    "material": 0,
                    "indices": 27,
                    "attributes": {
                        "POSITION": 24,
                        "NORMAL": 25,
                        "TEXCOORD_0": 26
                    }
                }
            ]
        },
        {
            "name": "meshes[7]",
            "primitives": [
                {
                    "mode": 4,
                    "material": 0,
                    "indices": 31,
                    "attributes": {
                        "POSITION": 28,
                        "NORMAL": 29,
                        "TEXCOORD_0": 30
                    }
                }
            ]
        }
    ],
    "nodes": [
        {
            "name": "ImageToStl.com_model",
            "children": [
                1
            ]
        },
        {
            "name": "tire",
            "children": [
                2,
                3,
                4,
                5,
                6,
                7,
                8
            ],
            "mesh": 0,
            "extras": {
                "name": "tire"
            }
        },
        {
            "name": "rim",
            "mesh": 1,
            "extras": {
                "name": "rim"
            }
        },
        {
            "name": "wheel_rim_bolt_a",
            "matrix": [
                1.0,
                0.0,
                0.0,
                0.0,
                0.0,
                1.0,
                0.0,
                0.0,
                0.0,
                0.0,
                1.0,
                0.0,
                0.008146221749484539,
                0.04975117743015289,
                0.0002789348363876343,
                1.0
            ],
            "mesh": 2,
            "extras": {
                "name": "wheel_rim_bolt_a"
            }
        },
        {
            "name": "wheel_rim_bolt_b",
            "matrix": [
                1.0,
                0.0,
                0.0,
                0.0,
                0.0,
                1.0,
                0.0,
                0.0,
                0.0,
                0.0,
                1.0,
                0.0,
                0.008146221749484539,
                0.015361331403255463,
                -0.047711990773677826,
                1.0
            ],
            "mesh": 3,
            "extras": {
                "name": "wheel_rim_bolt_b"
            }
        },
        {
            "name": "wheel_rim_bolt_c",
            "matrix": [
                1.0,
                0.0,
                0.0,
                0.0,
                0.0,
                1.0,
                0.0,
                0.0,
                0.0,
                0.0,
                1.0,
                0.0,
                0.008146221749484539,
                0.015024629421532154,
                0.047762949019670486,
                1.0
            ],
            "mesh": 4,
            "extras": {
                "name": "wheel_rim_bolt_c"
            }
        },
        {
            "name": "wheel_rim_bolt_d",
            "matrix": [
                1.0,
                0.0,
                0.0,
                0.0,
                0.0,
                1.0,
                0.0,
                0.0,
                0.0,
                0.0,
                1.0,
                0.0,
                0.008072543889284134,
                -0.04113243892788887,
                0.02953367866575718,
                1.0
            ],
            "mesh": 5,
            "extras": {
                "name": "wheel_rim_bolt_d"
            }
        },
        {
            "name": "wheel_rim_bolt_e",
            "matrix": [
                1.0,
                0.0,
                0.0,
                0.0,
                0.0,
                1.0,
                0.0,
                0.0,
                0.0,
                0.0,
                1.0,
                0.0,
                0.008146221749484539,
                -0.04123253747820854,
                -0.02945530042052269,
                1.0
            ],
            "mesh": 6,
            "extras": {
                "name": "wheel_rim_bolt_e"
            }
        },
        {
            "name": "wheel_rim_cap",
            "mesh": 7,
            "extras": {
                "name": "wheel_rim_cap"
            }
        }
    ],
    "scenes": [
        {
            "nodes": [
                0
            ]
        }
    ],
    "scene": 0
}